<?xml version="1.0" encoding="utf-8"?>
<!-- Generator: Adobe Illustrator 28.2.0, SVG Export Plug-In . SVG Version: 6.00 Build 0)  -->
<svg version="1.1" id="Layer_1" xmlns="http://www.w3.org/2000/svg" xmlns:xlink="http://www.w3.org/1999/xlink" x="0px" y="0px"
	 viewBox="0 0 600 431.6" style="enable-background:new 0 0 600 431.6;" xml:space="preserve">
<style type="text/css">
	.st0{fill:url(#SVGID_1_);}
	.st1{fill:url(#SVGID_00000116215465156033477080000005398434134072663187_);}
	.st2{fill:url(#SVGID_00000177483176697418461550000017117974730056752270_);}
	.st3{fill:#FCC685;}
	.st4{fill:#385D67;}
	.st5{fill:#CEB684;}
	.st6{fill:#F9FAF9;}
	.st7{fill:#BECFDE;}
	.st8{fill:#CDD0D3;}
	.st9{fill:#E1E2E9;}
	.st10{fill:#DEEDF5;}
	.st11{fill:#6DA0B1;}
	.st12{fill:#425D79;}
	.st13{fill:#B9BCCB;}
	.st14{fill:#92A7C2;}
	.st15{fill:#E6E3F4;}
	.st16{fill:#7D97AC;}
	.st17{fill:#4C819E;}
	.st18{fill:#A7BBD1;}
	.st19{fill:#658CA3;}
	.st20{fill:#C7B9C7;}
	.st21{fill:#3B7088;}
	.st22{fill:#B1D5DF;}
	.st23{opacity:0.81;fill:url(#SVGID_00000017499500242936718390000001278768544701409201_);}
	.st24{opacity:0.81;fill:url(#SVGID_00000007389569500501788920000012408429645418944142_);}
	.st25{fill:#EBE9E1;}
	.st26{fill:#011222;}
	.st27{fill:#05253C;}
	.st28{fill:url(#SVGID_00000173866488255476294470000004355408904906081173_);}
	.st29{fill:#708A94;}
	.st30{fill:#517E8B;}
	.st31{fill:#E0A784;}
	.st32{fill:#B4988A;}
</style>
<g>
	<g id="Background_00000109014240417711305130000014825321943146115747_">
		
			<linearGradient id="SVGID_1_" gradientUnits="userSpaceOnUse" x1="466.0251" y1="1760.6573" x2="553.5663" y2="2397.6704" gradientTransform="matrix(0.5861 0 0 0.7829 4.127818e-02 -1424.5491)">
			<stop  offset="0" style="stop-color:#021026"/>
			<stop  offset="0.4355" style="stop-color:#164057"/>
			<stop  offset="0.5568" style="stop-color:#235369"/>
			<stop  offset="0.6641" style="stop-color:#37697A"/>
			<stop  offset="0.9518" style="stop-color:#7B8D81"/>
		</linearGradient>
		<rect x="0" y="-2.2" class="st0" width="600.2" height="436.1"/>
		
			<linearGradient id="SVGID_00000183939162118752713580000008082574377078313134_" gradientUnits="userSpaceOnUse" x1="463.5846" y1="1766.5759" x2="551.1259" y2="2403.5889" gradientTransform="matrix(0.5861 0 0 0.5861 4.127818e-02 -1070.2458)">
			<stop  offset="0" style="stop-color:#0D1E40"/>
			<stop  offset="0.4355" style="stop-color:#164057"/>
			<stop  offset="0.5568" style="stop-color:#235369"/>
			<stop  offset="0.6641" style="stop-color:#37697A"/>
			<stop  offset="0.9518" style="stop-color:#7B8D81"/>
		</linearGradient>
		<path style="fill:url(#SVGID_00000183939162118752713580000008082574377078313134_);" d="M0,345.6C-0.1,237.2,0.1,106.2,0-2.2
			c300.1,0,300.1,0,600.2,0c-0.1,93.6,0.1,187.2,0,280.7c-0.8,0.1-0.7,1.6-1.5,1.8c-3.5,0.8-61.2-0.2-72.4,0.3
			c36.9,0.4,36.9,0.4,73.8,0.9c0,8.6,0,17.2,0,25.8c-22.9,14-73.4,4.3-103.2,8.5c9,4.1,19.1,2.8,28.7,3.5
			c-8.7,0.7-17.5-0.5-26.1,2.1c-164.6,0.6-164.6,0.6-329.1,1.2c-0.6-0.8-1.5-1.1-2.6-3.5c-12.2,11.1-14.3-0.3-19.9-10
			c-3.4-0.9-11.1,15.2-20.2-7.3c-15.1-9.1-16.4-22.5-21.1-24.3c-6.1-2.3-7.5,3.9-11.4,6.4c-20.7,13.3-17.4-1-28.1,2.9
			c-4.9,1.8-25.8,47.9-34.7,52.9C22.3,337.7,10.3,345.4,0,345.6z"/>
		
			<linearGradient id="SVGID_00000093142888763426360230000014078767390663099324_" gradientUnits="userSpaceOnUse" x1="661.9875" y1="2347.0928" x2="654.5153" y2="2439.7922" gradientTransform="matrix(0.5861 0 0 0.5861 4.127818e-02 -1070.2458)">
			<stop  offset="0" style="stop-color:#C0A67D"/>
			<stop  offset="1" style="stop-color:#F7C385"/>
		</linearGradient>
		<path style="fill:url(#SVGID_00000093142888763426360230000014078767390663099324_);" d="M600.2,353.5c-188,0-188,0-376,0
			c-1.7-1.5-3.1-1.7-3.2-1.8c-1-0.5,1.5-4.6-7.3,4.1c-5.5-6.7-10.5-6.6-12.3-7.6c-1.3-0.7-3-5-13.5-8.2c-6.6-8.4-9.9-8.3-17.3-17.6
			c164.6-0.6,164.6-0.6,329.1-1.2c8.5-2.5,17.3-1.3,26.1-2.1c-9.6-0.7-19.8,0.5-28.7-3.5c29.7-4.2,80.2,5.5,103.2-8.5
			C600.2,322.7,600.3,338.1,600.2,353.5z"/>
		<path class="st3" d="M600.2,353.5c0,3.3,0,6.6,0,10c-1.8,0-1.8,0-3.5,0c-11.8-1.6-14.3-1.4-25.2,0.6c-3,0.5-5.9,1.6-8.8,2.3
			c-0.8,0.2-1.6,0.4-2.3,0.6c-0.4-1.8,3.7-1.5,6.7-2.9c0-0.6,0-0.6,0-1.2c-27,0-27,0-53.9,0c-10.1,3.3-20.7,3.8-31.1,2.3
			c-15,6.2-31.6,5.9-46.9,10.5c-20.9-2.5-42.2-5.1-62.7-10.5c-10.7,1.6-15-0.6-15.8-0.6c-7,0.2-21.8,8.5-27,8.2
			c-9.5-1.9-13.2-6.1-15.2-7c-8-3.8-9.9,3.9-22.6,7.6c-10-2.1-19.3,3.3-29.3,2.3c-6.6-0.6-11.6-9.4-16.7-13.5
			c-13.7,7.4-10.3-2.9-19.3-7.6c-0.6-0.3-4.2,1.1-5.6-2.9c0.2,0.1,1.5,0.3,3.2,1.8C412.2,353.5,412.2,353.5,600.2,353.5z"/>
		<path class="st3" d="M29.3,325.9c-0.1,0.1-0.1,0.1-0.2,0.1c-13.2-0.8-8.3,18.5-29.1,22.1c0-6.1,0.2-0.5,0.2-6.5
			c9.7-0.2,19.6-12.9,29.2-11.4C30.3,330.4,30,325.3,29.3,325.9z"/>
		<path class="st4" d="M600.2,281.4c-36.9-0.4-36.9-0.4-73.8-0.9c11.1-0.5,68.9,0.5,72.4-0.3c0.8-0.2,0.7-1.6,1.5-1.8
			C600.2,279.5,600.2,280.5,600.2,281.4z"/>
		<path class="st5" d="M445.8,307.2c70.8,0.1,70.8,0.1,141.5,0.3c-65.8,0.4-65.8,0.4-131.6,0.9C450.8,307.8,450.8,307.8,445.8,307.2
			z"/>
		<path class="st6" d="M388.3,28.8c1.9-1.2,3,1.9,1.2,2.3C388.4,31.4,387.4,29.4,388.3,28.8z"/>
		<path class="st7" d="M340.3,192.9c1.9-0.1,1.9,1.3,1.2,1.8C340.2,195.6,338.6,193,340.3,192.9z"/>
		<path class="st8" d="M184.4,66.3c1.8-1,2.7,2.2,0.6,1.8C184.5,68,183.6,66.8,184.4,66.3z"/>
		<path class="st6" d="M500.9,109.7c3.5-0.5-0.5,3.9-0.9,0.9C500,110.5,500.8,109.7,500.9,109.7z"/>
		<path class="st6" d="M227.2,98c1.3-0.7,2.1,1.3,1.2,1.8C227,100.5,226.2,98.5,227.2,98z"/>
		<path class="st7" d="M525.5,39.4c1.4-0.2,1.7,1.6,0.6,1.8C524.7,41.4,524.3,39.6,525.5,39.4z"/>
		<path class="st9" d="M30.2,129.6c1.4-0.2,1.7,1.6,0.6,1.8C29.4,131.6,29.1,129.8,30.2,129.6z"/>
		<path class="st8" d="M359.6,74c1.4,0.2,1.1,2,0.6,2.3C359.9,76.5,357.9,73.7,359.6,74z"/>
		<path class="st9" d="M15.6,13.6c1.4-0.2,1.7,1.6,0.6,1.8C14.8,15.6,14.4,13.8,15.6,13.6z"/>
		<path class="st6" d="M51.3,8.3c1.4-0.2,1.7,1.6,0.6,1.8C50.5,10.3,50.2,8.5,51.3,8.3z"/>
		<path class="st10" d="M392.4,234.6c1.8-0.9,1.7,1.7,0.6,1.8C391.7,236.4,391.9,234.8,392.4,234.6z"/>
		<path class="st8" d="M187.9,82.8c2-1.3,1.1,4-0.3,1.5C187.5,84,187.5,83,187.9,82.8z"/>
		<path class="st6" d="M404.8,127.9c1.3,0.1,1.1,1.5,0.6,1.8C404.2,130.2,403.5,127.8,404.8,127.9z"/>
		<path class="st6" d="M394.8,119.1c1.3,0.1,1.1,1.5,0.6,1.8C394.2,121.4,393.6,119,394.8,119.1z"/>
		<path class="st6" d="M455.2,100.9c1.1,0.1,0.9,2-0.6,1.8C452.9,102.4,454.7,100.9,455.2,100.9z"/>
		<path class="st6" d="M345,18.3c0.3,0,1.4,1.4,0.6,1.8C343.6,20.9,344,18.3,345,18.3z"/>
		<path class="st6" d="M343.2,8.9c1.3,0.1,1.1,1.5,0.6,1.8C342.7,11.3,342,8.8,343.2,8.9z"/>
		<path class="st11" d="M280.5,117.9c1.6-0.9,2.8,2.9,0,1.2C280,118.8,280,118.2,280.5,117.9z"/>
		<path class="st12" d="M302.8,101.5c0.8-0.4,2.1,0.7,2.1,0.9C304.5,103.4,301.8,102,302.8,101.5z"/>
		<path class="st13" d="M271.1,25.9c2.5-0.8,0.9,1.9-0.6,1.2C270,26.8,270.9,26,271.1,25.9z"/>
		<path class="st9" d="M281.7,98.6c2-0.3,1.4,2.2-0.6,1.2C280.5,99.4,281.5,98.6,281.7,98.6z"/>
		<path class="st6" d="M355.5,165.4c1.2-0.6,1.2,2.3,0,1.8C355,166.9,355,165.6,355.5,165.4z"/>
		<path class="st10" d="M420.6,87.4c0.2,0,1.3,0.8,0.3,1.5C419.8,89.6,419.6,87.4,420.6,87.4z"/>
		<path class="st9" d="M379,40c0.2,0,1.3,0.8,0.3,1.5C378.1,42.1,378,40,379,40z"/>
		<path class="st6" d="M185.5,167.7c0.2,0,1.3,0.8,0.3,1.5C184.7,169.9,184.5,167.7,185.5,167.7z"/>
		<path class="st9" d="M292.8,6.6c0.5-0.3,1.5,0.8,1.5,0.9C293.8,8.4,291.5,7.4,292.8,6.6z"/>
		<path class="st6" d="M187.9,24.1c0.2,0,1.3,0.8,0.3,1.5C187.1,26.3,186.9,24.1,187.9,24.1z"/>
		<path class="st7" d="M229.5,64c1.2-0.4,2.1,0.6,1.2,1.2C230.2,65.5,228.8,64.2,229.5,64z"/>
		<path class="st6" d="M329.1,44.7c1.5-0.8,1.7,1,0.6,1.2C329.7,45.8,328.5,45,329.1,44.7z"/>
		<path class="st8" d="M255.9,41.7c0.9-0.4,1.3,0.9,0.6,1.2C255.6,43.2,255.2,42,255.9,41.7z"/>
		<path class="st13" d="M368.4,23.6c0.9-0.4,1.3,0.9,0.6,1.2C368.1,25.1,367.7,23.8,368.4,23.6z"/>
		<path class="st14" d="M479.8,30c0.9-0.4,1.3,0.9,0.6,1.2C479.5,31.5,479.1,30.3,479.8,30z"/>
		<path class="st9" d="M517.3,79.8c0.1,0,1.2,0.9,0.6,1.2C516.4,81.8,516.2,79.9,517.3,79.8z"/>
		<path class="st8" d="M221.9,28.2c1.4,0.7-1,1.9-1.5,0.9C220.4,29,221.8,28.2,221.9,28.2z"/>
		<path class="st6" d="M210.2,27.7c0.1,0,1.2,0.9,0.6,1.2C209.2,29.6,209.1,27.8,210.2,27.7z"/>
		<path class="st9" d="M517.9,25.3c0.7,0.5,0.3,2.6-0.6,1.2C516.9,25.9,517.8,25.3,517.9,25.3z"/>
		<path class="st8" d="M102.3,18.3c0.1,0,1.2,0.9,0.6,1.2C101.4,20.3,101.2,18.4,102.3,18.3z"/>
		<path class="st15" d="M141,78.6c1.5-0.8,1.7,1,0.6,1.2C141.5,79.8,140.4,79,141,78.6z"/>
		<path class="st16" d="M6.8,69.3c1-0.2,1.5-0.1,1.5,0.9C8.2,70.6,5.9,69.5,6.8,69.3z"/>
		<path class="st17" d="M446.4,68.7c1.5-0.8,1.7,1,0.6,1.2C446.9,69.9,445.8,69,446.4,68.7z"/>
		<path class="st8" d="M538.4,119.7c0.9-0.4,1.3,0.9,0.6,1.2C538.1,121.2,537.7,120,538.4,119.7z"/>
		<path class="st18" d="M427,125.5c0.9-0.4,1.3,0.9,0.6,1.2C426.7,127.1,426.3,125.8,427,125.5z"/>
		<path class="st8" d="M116.4,59.3c0.9-0.4,1.3,0.9,0.6,1.2C116.1,60.8,115.7,59.6,116.4,59.3z"/>
		<path class="st14" d="M465.7,99.7c0.9-0.4,1.3,0.9,0.6,1.2C465.4,101.3,465,100,465.7,99.7z"/>
		<path class="st19" d="M486.2,88.6c0.1,0,1.1,0.9,0.9,1.5C486.8,91,485.3,88.7,486.2,88.6z"/>
		<path class="st18" d="M379,137.3c0.3,0,0.3,0,0.6,0c0.1,0.1,0.1,0.1,0.3,0.3c-0.1,0.1-0.1,0.1-0.3,0.3c-0.1,0.1-0.1,0.1-0.3,0.3
			c-0.1,0.1-0.1,0.1-0.3,0.3c-0.1-0.1-0.1-0.1-0.3-0.3c0-0.3,0-0.3,0-0.6C378.8,137.4,378.8,137.4,379,137.3z"/>
		<path class="st19" d="M466.3,44.1c0.3-0.2,1.5,0,1.5,0.3C467.8,45,465.2,44.6,466.3,44.1z"/>
		<path class="st13" d="M296.9,40.6c0.1,0.1,0.1,0.1,0.3,0.3c0.1,0.1,0.1,0.1,0.3,0.3c0.1,0.1,0.1,0.1,0.3,0.3
			c-0.1,0.1-0.1,0.1-0.3,0.3c-0.3,0-0.3,0-0.6,0c-0.1-0.1-0.1-0.1-0.3-0.3c0-0.3,0-0.3,0-0.6C296.8,40.7,296.8,40.7,296.9,40.6z"/>
		<path class="st11" d="M269.9,222.2c0.3-0.2,1.5,0,1.5,0.3C271.4,223.2,268.9,222.8,269.9,222.2z"/>
		<path class="st9" d="M142.8,231c0.3,0,0.3,0,0.6,0c0.1,0.1,0.1,0.1,0.3,0.3c0,0.3,0,0.3,0,0.6c-0.1,0.1-0.1,0.1-0.3,0.3
			c-0.1-0.1-0.1-0.1-0.3-0.3s-0.1-0.1-0.3-0.3c-0.1-0.1-0.1-0.1-0.3-0.3C142.6,231.2,142.6,231.2,142.8,231z"/>
		<path class="st12" d="M553.6,13c0.1,0.1,0.1,0.1,0.3,0.3c0,0.3,0,0.3,0,0.6c-0.1,0.1-0.1,0.1-0.3,0.3c-0.3,0-0.3,0-0.6,0
			c-0.1-0.1-0.1-0.1-0.3-0.3c0.1-0.1,0.1-0.1,0.3-0.3c0.1-0.1,0.1-0.1,0.3-0.3S553.5,13.2,553.6,13z"/>
		<path class="st20" d="M133.4,11.2c0.1,0.1,0.1,0.1,0.3,0.3c0,0.3,0,0.3,0,0.6c-0.1,0.1-0.1,0.1-0.3,0.3c-0.3,0-0.3,0-0.6,0
			c-0.1-0.1-0.1-0.1-0.3-0.3c0.1-0.1,0.1-0.1,0.3-0.3c0.1-0.1,0.1-0.1,0.3-0.3S133.2,11.4,133.4,11.2z"/>
		<path class="st9" d="M286.4,63.4c0.1,0.1,0.1,0.1,0.3,0.3c0.1,0.1,0.1,0.1,0.3,0.3c0.1,0.1,0.1,0.1,0.3,0.3
			c-0.1,0.1-0.1,0.1-0.3,0.3c-0.3,0-0.3,0-0.6,0c-0.1-0.1-0.1-0.1-0.3-0.3c0-0.3,0-0.3,0-0.6C286.2,63.6,286.2,63.6,286.4,63.4z"/>
		<path class="st6" d="M170.3,56.4c0.3-0.2,1.5,0,1.5,0.3C171.8,57.3,169.3,56.9,170.3,56.4z"/>
		<path class="st21" d="M473.3,54c0.3-0.2,1.5,0,1.5,0.3C474.8,55,472.3,54.5,473.3,54z"/>
		<path class="st22" d="M394.5,136.1c-0.1,0-0.1,0.6-1.2,1.2C392.2,135.2,392.7,135.6,394.5,136.1z"/>
	</g>
	
		<linearGradient id="SVGID_00000034779385056744570300000014068530887090620084_" gradientUnits="userSpaceOnUse" x1="321.4813" y1="404.5668" x2="278.7614" y2="162.29">
		<stop  offset="4.821069e-02" style="stop-color:#FCC685"/>
		<stop  offset="0.1029" style="stop-color:#F3C285"/>
		<stop  offset="0.1921" style="stop-color:#DBB684"/>
		<stop  offset="0.3047" style="stop-color:#B3A482"/>
		<stop  offset="0.435" style="stop-color:#7D8A80"/>
		<stop  offset="0.495" style="stop-color:#617D7F"/>
		<stop  offset="0.8072" style="stop-color:#37697A;stop-opacity:0.8"/>
		<stop  offset="0.9774" style="stop-color:#2F5368"/>
	</linearGradient>
	
		<rect y="211.4" style="opacity:0.81;fill:url(#SVGID_00000034779385056744570300000014068530887090620084_);" width="600.2" height="144"/>
	
		<linearGradient id="SVGID_00000096765112058282176570000003214155530457001119_" gradientUnits="userSpaceOnUse" x1="298.8623" y1="361.234" x2="298.8623" y2="217.2635">
		<stop  offset="0.1085" style="stop-color:#FCC685"/>
		<stop  offset="0.1558" style="stop-color:#F3C285;stop-opacity:0.8776"/>
		<stop  offset="0.233" style="stop-color:#DBB684;stop-opacity:0.6779"/>
		<stop  offset="0.3304" style="stop-color:#B3A482;stop-opacity:0.4259"/>
		<stop  offset="0.4431" style="stop-color:#7D8A80;stop-opacity:0.1342"/>
		<stop  offset="0.495" style="stop-color:#617D7F;stop-opacity:0"/>
	</linearGradient>
	
		<rect x="-1.3" y="211.4" style="opacity:0.81;fill:url(#SVGID_00000096765112058282176570000003214155530457001119_);" width="600.2" height="144"/>
	<g>
		<g>
			<path class="st6" d="M105.8,141.9c18.2-3,20,21.1,5.3,23.4C94.1,168.1,91.4,144.3,105.8,141.9z"/>
			<path class="st25" d="M111.4,150.7c-4,5.5-11.6,6.3-11.1,2.1c0.1-1.4,2.3-1,2.3-1.2c0.6-2.2-2.1-1.6-0.6-4.4
				C113.3,147.7,107,150.9,111.4,150.7z"/>
			<path class="st8" d="M111.4,150.7c-4.4,0.1,1.9-3.1-9.4-3.5C105.8,140.1,116.6,143.5,111.4,150.7z"/>
		</g>
		<g>
			<path class="st26" d="M425,433.8c-141.6,0.1-283.3-0.1-424.9,0c0-14.3,0.1-28.5,0-42.8c27.7-2.6,27.7-2.6,55.4-5.3
				c87.8-2.3,174.2,14.7,260.2,29.9c16.4,2.9,32.7,7.9,49.2,10.5C384.8,429.4,405.2,430,425,433.8z"/>
			<g>
				<path class="st27" d="M106.7,277.3c3.2,8.1,3.2,8.1,6.4,16.1c-3,8.1,10.9,21.7,12.3,25.2c2.4,6,0.9,12.8,4.7,19.3
					c1.3,2.3,13.7,14.1,16.7,17.9c19.9,9.4,19.9,9.4,39.9,18.8c32.2,5.1,63.5,14.6,93.8,26.4c53,8.3,106.1,16.2,159.4,22.9
					c24.9-2.6,24.9-2.6,49.8-5.3c17.2-5.2,35.3-6.2,52.7-10c19.3-4.1,38-11.4,57.7-13.5c-0.1,12.9,0,25.8,0,38.7
					c-58.4,0-116.8,0-175.2,0c-19.8-3.8-40.2-4.4-60.1-7.6c-16.5-2.7-32.8-7.7-49.2-10.5c-86-15.2-172.5-32.2-260.2-29.9
					c-27.7,2.6-27.7,2.6-55.4,5.3c-0.1-16.6,0-33.2,0-49.8c20.8-3.6,15.8-16,29-15.2c0.7-0.3,1.4-1.7,1.5-1.8
					c8.9-4.9,31.8-35.7,36.6-37.5c10.7-3.9,7.5,10.4,28.1-2.9C99.2,281.2,100.6,275,106.7,277.3z"/>
				
					<linearGradient id="SVGID_00000155868165856410235640000010007148193070266264_" gradientUnits="userSpaceOnUse" x1="784.7069" y1="2222.325" x2="414.0466" y2="2584.1743" gradientTransform="matrix(0.5861 0 0 0.5861 4.127818e-02 -1070.2458)">
					<stop  offset="0.4498" style="stop-color:#315D72"/>
					<stop  offset="1" style="stop-color:#053752"/>
				</linearGradient>
				<path style="fill:url(#SVGID_00000155868165856410235640000010007148193070266264_);" d="M170.6,322.5
					c7.4,9.3,10.7,9.2,17.3,17.6c10.5,3.2,12.2,7.5,13.5,8.2c1.8,1.1,6.9,0.9,12.3,7.6c8.8-8.7,6.4-4.6,7.3-4.1
					c1.3,4,4.9,2.6,5.6,2.9c9,4.7,5.7,15,19.3,7.6c5.1,4.1,10.1,12.8,16.7,13.5c6.3,5.1,23.3,6.7,31.1,5.9
					c11.1,13.1,39.8,18.2,56.6,24c27.7-0.9,58.1-5.7,84.4,4.7c12.5,0.2,25-2,37.5-2.3c3.3-1.2-0.4-5.6,2.9-8.2
					c2.1-1.6,17.2-3.4,21.7-4.7c8.8-2.5,36.3-11,40.4-16.4c1.4-0.2,4.1,0.3,4.7,0c3.2-1.4,19.6-9.8,20.5-10.5
					c0.5-0.4,0.2-1.2,0.3-1.8c2.9-0.7,5.8-1.8,8.8-2.3c6.3,2.8,21,3.3,25.2-0.6c1.8,0,1.8,0,3.5,0c0,10.5,0.1,21.1,0,31.6
					c-19.8,2.1-38.4,9.4-57.7,13.5c-17.4,3.7-35.6,4.8-52.7,10c-24.9,2.6-24.9,2.6-49.8,5.3c-53.3-6.7-106.4-14.6-159.4-22.9
					c-30.3-11.8-61.6-21.3-93.8-26.4c-19.9-9.4-19.9-9.4-39.9-18.8c-3-3.8-15.4-15.6-16.7-17.9c-3.8-6.6-2.3-13.3-4.7-19.3
					c-1.4-3.5-15.3-17.1-12.3-25.2c-3.2-8.1-3.2-8.1-6.4-16.1c4.7,1.8,6,15.2,21.1,24.3c9.2,22.5,16.8,6.5,20.2,7.3
					c5.7,9.7,7.8,21,19.9,10C169.1,321.4,170,321.7,170.6,322.5z"/>
			</g>
			<path class="st29" d="M291.9,373.5c3.9,0.8,11.7,5.6,12.3,5.9c-4.7,0.2-10,2.3-10.5,2.3c-7.7,0.9-24.7-0.8-31.1-5.9
				C272.7,376.8,281.9,371.4,291.9,373.5z"/>
			<g>
				<path class="st30" d="M562.7,366.4c0,0.6,0.2,1.3-0.3,1.8c-0.9,0.7-17.3,9.1-20.5,10.5c-0.6,0.3-3.3-0.2-4.7,0
					c-4.2,5.5-31.7,14-40.4,16.4c-4.5,1.3-19.6,3.1-21.7,4.7c-3.3,2.6,0.4,7-2.9,8.2c-12.5,0.3-25,2.5-37.5,2.3
					c-26.3-10.4-56.7-5.6-84.4-4.7c-16.7-5.9-45.4-11-56.6-24c0.5-0.1,5.9-2.1,10.5-2.3c1.5,0.6,2.8,1.8,4.4,2.3
					c1,0.1,2.4-0.2,3.2,0c1.7,0.5,6.9,0.8,10.3,1.8c3.9,1.2,12.9,7,22.9,10c11.4,3.3,23.8,4.4,35.2,8.2c11-1.7,21.7-6.5,32.8-7.6
					c18.9-1.9,40.6,3.7,66.8-7c10.3-1.5,10.3-1.5,20.5-2.9c5.8-1.4,11.5-3.8,17.3-5.3c8.2-2.1,16.7-3.7,24.9-5.9
					c3.1-0.8,9.3-3.6,17.9-5.9C561.2,366.8,561.9,366.6,562.7,366.4z"/>
				<path class="st29" d="M596.7,363.5c-4.2,3.9-18.9,3.4-25.2,0.6C582.4,362.1,584.9,361.9,596.7,363.5z"/>
			</g>
			<g>
				<path class="st31" d="M560.4,367c-8.5,2.2-14.7,5-17.9,5.9c-8.2,2.2-16.7,3.8-24.9,5.9c-9.5,0.3-9.5,0.3-19,0.6
					c-4.7,1.5-4.7,1.5-9.4,2.9c-59.1,3.9-118.2,0-177.3-0.6c-0.8-0.2-2.2,0.1-3.2,0c-1.6-0.6-2.9-1.8-4.4-2.3
					c-0.6-0.2-8.4-5.1-12.3-5.9c12.7-3.7,14.6-11.4,22.6-7.6c2,0.9,5.8,5.2,15.2,7c5.2,0.3,19.9-8,27-8.2c0.8,0,5.1,2.2,15.8,0.6
					c20.5,5.4,41.8,8.1,62.7,10.5c15.3-4.7,31.9-4.3,46.9-10.5c10.4,1.5,21,0.9,31.1-2.3c27,0,27,0,53.9,0c0,0.6,0,0.6,0,1.2
					C564.1,365.5,560,365.3,560.4,367z"/>
				<path class="st32" d="M517.6,378.7c-5.8,1.5-11.5,3.9-17.3,5.3c-10.3,1.5-10.3,1.5-20.5,2.9c-26.2,10.8-47.9,5.1-66.8,7
					c-11.1,1.1-21.8,5.9-32.8,7.6c-11.3-3.8-23.8-4.9-35.2-8.2c-10-2.9-19-8.8-22.9-10c-3.3-1-8.6-1.3-10.3-1.8
					c59.1,0.6,118.2,4.5,177.3,0.6c4.7-1.5,4.7-1.5,9.4-2.9C508.1,379,508.1,379,517.6,378.7z"/>
			</g>
		</g>
	</g>
</g>
</svg>
